<?xml version="1.0" encoding="UTF-8"?>
<svg id="Calque_2" xmlns="http://www.w3.org/2000/svg" viewBox="0 0 262.09 67.72">
  <g id="Calque_1-2" data-name="Calque_1">
    <g>
      <g>
        <path d="M22.51,7.24c.36.38.54.86.54,1.45,0,.2-.04.45-.13.75l-4.98,13.41c-.13.39-.36.7-.7.93-.34.23-.7.34-1.09.34l-.26-.03c-.74-.04-1.29-.46-1.66-1.24l-2.77-8.01-2.64,8.01c-.37.78-.92,1.19-1.66,1.24l-.26.03c-.39,0-.75-.11-1.09-.34-.34-.23-.57-.54-.7-.93L.13,9.44c-.09-.24-.13-.49-.13-.75,0-.54.18-1.01.54-1.42.36-.4.83-.6,1.42-.6.43,0,.81.1,1.12.31.31.21.54.52.67.93l3.52,9.54,2.57-6.97c.35-.8.94-1.2,1.79-1.2.46,0,.81.1,1.06.29.25.2.46.5.63.91l2.51,6.8,3.48-9.38c.13-.41.36-.72.68-.93.33-.21.73-.31,1.2-.31.52,0,.96.19,1.32.57Z"/>
        <path d="M39.75,8.32c.82,1.31,1.24,3.13,1.24,5.45v8.33c0,.56-.19,1.04-.55,1.42-.37.38-.84.57-1.4.57s-1.03-.19-1.4-.57c-.37-.38-.55-.85-.55-1.42v-8.33c0-1.19-.23-2.13-.7-2.82-.47-.68-1.29-1.03-2.46-1.03s-2.17.36-2.85,1.09c-.68.73-1.03,1.64-1.03,2.75v8.33c0,.56-.18,1.04-.55,1.42-.37.38-.84.57-1.4.57s-1.03-.19-1.4-.57c-.37-.38-.55-.85-.55-1.42V1.99c0-.56.18-1.04.55-1.42.37-.38.84-.57,1.4-.57s1.03.19,1.4.57c.37.38.55.85.55,1.42v7.19c.59-.78,1.33-1.45,2.23-2,.9-.55,1.9-.83,3.01-.83,2.15,0,3.64.66,4.46,1.97Z"/>
        <path d="M60.72,6.9c.37.37.55.85.55,1.43v13.77c0,.56-.19,1.04-.55,1.42-.37.38-.84.57-1.4.57s-1.03-.18-1.38-.55c-.36-.37-.55-.83-.57-1.4-.54.63-1.27,1.17-2.2,1.61-.92.44-1.89.67-2.91.67-1.5,0-2.85-.39-4.07-1.16-1.22-.77-2.18-1.84-2.88-3.21-.71-1.37-1.06-2.92-1.06-4.66s.35-3.29,1.04-4.67c.69-1.38,1.64-2.45,2.85-3.22,1.2-.77,2.53-1.16,3.99-1.16,1.04,0,2.02.19,2.93.57.91.38,1.68.86,2.31,1.45v-.03c0-.56.18-1.04.55-1.42.37-.38.84-.57,1.4-.57s1.03.18,1.4.55ZM56.19,19.29c.89-1.03,1.33-2.33,1.33-3.89s-.45-2.86-1.33-3.91c-.89-1.04-2.04-1.56-3.45-1.56s-2.53.52-3.42,1.56c-.89,1.04-1.33,2.34-1.33,3.91s.44,2.86,1.32,3.89c.88,1.03,2.02,1.55,3.43,1.55s2.56-.52,3.45-1.55Z"/>
        <path d="M74.73,20.85c.25.29.37.68.37,1.16,0,.59-.32,1.08-.96,1.48-.64.4-1.36.6-2.17.6-1.35,0-2.48-.29-3.4-.86-.92-.57-1.38-1.8-1.38-3.66v-8.99h-1.5c-.52,0-.96-.17-1.3-.52-.35-.35-.52-.78-.52-1.3s.17-.92.52-1.25c.35-.34.78-.5,1.3-.5h1.5v-2.08c0-.56.19-1.04.57-1.42s.85-.57,1.42-.57,1,.19,1.37.57c.37.38.55.85.55,1.42v2.08h2.31c.52,0,.96.17,1.3.52s.52.78.52,1.3-.17.92-.52,1.25-.78.5-1.3.5h-2.31v8.82c0,.46.12.79.36.99.24.21.56.31.98.31.17,0,.41-.04.72-.13.26-.11.51-.16.75-.16.3,0,.58.15.83.44Z"/>
        <path d="M97.17,20.85c.25.29.37.68.37,1.16,0,.59-.32,1.08-.96,1.48-.64.4-1.36.6-2.17.6-1.35,0-2.48-.29-3.4-.86-.92-.57-1.38-1.8-1.38-3.66v-8.99h-1.5c-.52,0-.96-.17-1.3-.52-.35-.35-.52-.78-.52-1.3s.17-.92.52-1.25c.35-.34.78-.5,1.3-.5h1.5v-2.08c0-.56.19-1.04.57-1.42s.85-.57,1.42-.57,1,.19,1.37.57c.37.38.55.85.55,1.42v2.08h2.31c.52,0,.96.17,1.3.52s.52.78.52,1.3-.17.92-.52,1.25-.78.5-1.3.5h-2.31v8.82c0,.46.12.79.36.99.24.21.56.31.98.31.17,0,.41-.04.72-.13.26-.11.51-.16.75-.16.3,0,.58.15.83.44Z"/>
        <path d="M114.86,8.32c.82,1.31,1.24,3.13,1.24,5.45v8.33c0,.56-.19,1.04-.55,1.42-.37.38-.84.57-1.4.57s-1.03-.19-1.4-.57c-.37-.38-.55-.85-.55-1.42v-8.33c0-1.19-.23-2.13-.7-2.82-.47-.68-1.29-1.03-2.46-1.03s-2.17.36-2.85,1.09c-.68.73-1.03,1.64-1.03,2.75v8.33c0,.56-.18,1.04-.55,1.42-.37.38-.84.57-1.4.57s-1.03-.19-1.4-.57c-.37-.38-.55-.85-.55-1.42V1.99c0-.56.18-1.04.55-1.42.37-.38.84-.57,1.4-.57s1.03.19,1.4.57c.37.38.55.85.55,1.42v7.19c.59-.78,1.33-1.45,2.23-2,.9-.55,1.9-.83,3.01-.83,2.15,0,3.64.66,4.46,1.97Z"/>
        <path d="M135.34,16.25c-.39.33-.85.49-1.37.49h-10.74c.26,1.28.86,2.28,1.79,3.01s1.99,1.09,3.16,1.09c.89,0,1.58-.08,2.08-.24.5-.16.9-.34,1.19-.52.29-.18.49-.31.6-.37.39-.2.76-.29,1.11-.29.46,0,.85.16,1.17.49.33.33.49.71.49,1.14,0,.59-.3,1.12-.91,1.6-.61.5-1.42.92-2.44,1.27-1.02.35-2.05.52-3.09.52-1.82,0-3.41-.38-4.77-1.14-1.36-.76-2.4-1.81-3.14-3.14-.74-1.33-1.11-2.84-1.11-4.51,0-1.87.39-3.5,1.17-4.92.78-1.41,1.81-2.49,3.09-3.24,1.28-.75,2.65-1.12,4.1-1.12s2.78.39,4.05,1.17c1.27.78,2.28,1.83,3.04,3.16.76,1.32,1.14,2.76,1.14,4.3-.02.52-.23.94-.62,1.27ZM123.26,13.48h8.53v-.23c-.09-.91-.53-1.69-1.33-2.34-.8-.65-1.71-.98-2.73-.98-2.52,0-4,1.18-4.46,3.55Z"/>
      </g>
      <g>
        <circle cx="81.63" cy="34.28" r="3.33"/>
        <circle cx="103.45" cy="39.83" r="3.33"/>
        <circle cx="103.45" cy="45.87" r="3.33"/>
        <circle cx="103.45" cy="52.54" r="3.33"/>
        <circle cx="103.45" cy="59.21" r="3.33"/>
        <circle cx="103.45" cy="63.17" r="3.33"/>
        <circle cx="116.21" cy="39.83" r="3.33"/>
        <circle cx="147.95" cy="39.95" r="3.33"/>
        <circle cx="161.56" cy="40.26" r="3.33"/>
        <circle cx="161.56" cy="46.92" r="3.33"/>
        <circle cx="161.56" cy="53.59" r="3.33"/>
        <circle cx="161.56" cy="60.26" r="3.33"/>
        <circle cx="161.56" cy="63.94" r="3.33"/>
        <circle cx="183.17" cy="44.6" r="2.73"/>
        <circle cx="185.46" cy="41.87" r="2.72"/>
        <circle cx="228.75" cy="51.37" r="1.84"/>
        <circle cx="189.3" cy="40.04" r="2.57"/>
        <circle cx="195.01" cy="40.01" r="3.39"/>
        <circle cx="232.42" cy="50.6" r="3.39"/>
        <circle cx="230.97" cy="44.04" r="3.39"/>
        <circle cx="225.64" cy="39.82" r="3.39"/>
        <circle cx="219.04" cy="39.59" r="3.39"/>
        <circle cx="213.55" cy="43.51" r="3.39"/>
        <circle cx="211.19" cy="49.76" r="3.39"/>
        <circle cx="211.8" cy="56.54" r="3.39"/>
        <circle cx="215.75" cy="62.07" r="3.39"/>
        <circle cx="221.97" cy="64.33" r="3.39"/>
        <circle cx="228.75" cy="63.32" r="3.39"/>
        <circle cx="241.62" cy="58.68" r="3.39"/>
        <circle cx="217.48" cy="51.37" r="3.39"/>
        <circle cx="224.26" cy="51.37" r="3.39"/>
        <circle cx="198.4" cy="45.5" r="3.39"/>
        <circle cx="198.85" cy="52.28" r="3.39"/>
        <circle cx="198.85" cy="59.06" r="3.39"/>
        <circle cx="198.85" cy="63.94" r="3.39"/>
        <circle cx="165.24" cy="43.59" r="2.56"/>
        <circle cx="168.13" cy="41.03" r="2.79"/>
        <circle cx="172.57" cy="39.55" r="2.93"/>
        <circle cx="180.23" cy="48.16" r="2.93"/>
        <circle cx="180.23" cy="54.03" r="2.93"/>
        <circle cx="180.23" cy="59.86" r="2.93"/>
        <circle cx="180.23" cy="64.28" r="2.93"/>
        <circle cx="178.54" cy="41.87" r="3.63"/>
        <circle cx="147.95" cy="46.62" r="3.33"/>
        <circle cx="142.51" cy="41.87" r="2.91"/>
        <circle cx="142.51" cy="61.67" r="2.91"/>
        <circle cx="137.25" cy="39.83" r="2.91"/>
        <circle cx="137.77" cy="63.94" r="2.91"/>
        <circle cx="131.39" cy="40.74" r="3.46"/>
        <circle cx="126.42" cy="45.34" r="3.46"/>
        <circle cx="125.4" cy="52.26" r="3.46"/>
        <circle cx="126.84" cy="58.76" r="3.46"/>
        <circle cx="131.79" cy="63.05" r="3.46"/>
        <circle cx="147.95" cy="53.29" r="3.33"/>
        <circle cx="147.95" cy="59.96" r="3.33"/>
        <circle cx="147.95" cy="63.94" r="3.33"/>
        <circle cx="109.65" cy="40.67" r="2.34"/>
        <circle cx="112.35" cy="39.95" r="2.34"/>
        <circle cx="106" cy="43.49" r="2.55"/>
        <circle cx="81.63" cy="40.95" r="3.33"/>
        <circle cx="88.3" cy="40.95" r="3.33"/>
        <circle cx="74.96" cy="40.95" r="3.33"/>
        <circle cx="81.63" cy="47.61" r="3.33"/>
        <circle cx="81.63" cy="54.28" r="3.33"/>
        <circle cx="81.63" cy="60.95" r="3.33"/>
        <circle cx="87.19" cy="63.17" r="3.33"/>
        <circle cx="92.75" cy="59.84" r="3.33"/>
      </g>
      <path d="M244.52,43.34c.72-.37,1.49-.42,2.32-.14,2.08.7,3.92.78,5.52.22,1.59-.55,2.74-1.86,3.43-3.91.53-1.58.4-3.08-.38-4.51-.79-1.43-2.03-2.42-3.74-3-1.74-.58-3.47-.52-5.19.21-.99.44-1.9.52-2.72.24-.6-.2-1.07-.57-1.42-1.11-.61-.91-.77-1.79-.48-2.64.24-.73.77-1.29,1.57-1.69,1.53-.79,3.17-1.25,4.92-1.38,1.75-.13,3.49.09,5.23.68,2.15.72,3.94,1.87,5.38,3.45,1.44,1.58,2.39,3.4,2.85,5.47.46,2.07.35,4.14-.34,6.19-1.02,3.03-2.7,5.14-5.03,6.33-2.33,1.18-5.01,1.51-8.04.99-.18.01-.29.06-.32.16l-.59,1.75c-.28.82-.78,1.42-1.5,1.79-.72.37-1.5.42-2.32.14s-1.41-.78-1.76-1.52c-.35-.73-.39-1.51-.11-2.33l1.21-3.6c.28-.82.78-1.42,1.5-1.79Z"/>
    </g>
  </g>
</svg>